# xmcd CD database file
#
# Track frame offsets:
#	225
#	17585
#	38147
#	60580
#	77316
#	95693
#	120856
#	147422
#	169038
#	188372
#	213395
#	230770
#	253694
#	272216
#	295494
#
# Disc length: 4188 seconds
#
# Revision: 0
# Processed by: cddbd v1.5.2PL0 Copyright (c) Steve Scherf et al.
# Submitted via: CDex 1.51
#
DISCID=cd10590f
DTITLE=Reba Russel Band - Rewound
DYEAR=1900
DGENRE=Blues
TTITLE0=1 Toolbox blues
TTITLE1=2 Part-time love
TTITLE2=3 Heaven came to Helena
TTITLE3=4 Going on strong
TTITLE4=5 Later than you think
TTITLE5=6 Chinaberry tree
TTITLE6=7 Your love is all you got
TTITLE7=8 Don't let me on
TTITLE8=9 When the lights go out
TTITLE9=10 Gonna move to Missisippi
TTITLE10=11 When you get the chance
TTITLE11=12 A lover is forever
TTITLE12=13 My religion too
TTITLE13=14 Blue bird song
TTITLE14=15 No man like a snowman
EXTD=
EXTT0=
EXTT1=
EXTT2=
EXTT3=
EXTT4=
EXTT5=
EXTT6=
EXTT7=
EXTT8=
EXTT9=
EXTT10=
EXTT11=
EXTT12=
EXTT13=
EXTT14=
PLAYORDER=
